# xmcd
#
# Track frame offsets:
#	150
#	19163
#	37743
#	55473
#	75333
#	94500
#	113053
#	130738
#	149348
#	169048
#	188998
#	208570
#	234140
#
# Disc length: 3426 seconds
#
# Revision: 1
# Processed by: cddbd v1.5.1PL0 Copyright (c) Steve Scherf et al.
# Submitted via: CDex 1.50Beta5
#
DISCID=9c0d600d
DTITLE=雅夢 - ファイナル〜彩歴
DYEAR=1992
DGENRE=
TTITLE0=愛はかげろう
TTITLE1=悲しくて
TTITLE2=浮雲
TTITLE3=秋時雨
TTITLE4=追いかけて
TTITLE5=霧雨の旅人
TTITLE6=夕映えよ心の鳩を抱け
TTITLE7=哀しみのブラマンジェ
TTITLE8=サヨナラ・君
TTITLE9=辛口のゲーム
TTITLE10=壊れた夜
TTITLE11=帰らぬ河のほとりで
TTITLE12=ファイナル
EXTD=
EXTT0=
EXTT1=
EXTT2=
EXTT3=
EXTT4=
EXTT5=
EXTT6=
EXTT7=
EXTT8=
EXTT9=
EXTT10=
EXTT11=
EXTT12=
PLAYORDER=
